# xmcd
#
# Track frame offsets: 
#        150
#        15736
#        40705
#        56097
#        70675
#        86182
#        102345
#        114496
#        130156
#        145558
#        157182
#
# Disc length: 2267 seconds
#
# Revision: 0
# Processed by: cddbd v1.5.2PL0 Copyright (c) Steve Scherf et al.
# Submitted via: ExactAudioCopy v0.95b3
#
DISCID=9208d90b
DTITLE=Annathema - Annathema
DYEAR=1989
DGENRE=Heavy Metal
TTITLE0=To Hell And Back
TTITLE1=Steel In My Breath
TTITLE2=Burn In Flames
TTITLE3=Killer Machine
TTITLE4=Big Ferry Eyes
TTITLE5=Loud, Proud, And Deaf
TTITLE6=Matriarch
TTITLE7=Forever Survive
TTITLE8=Ramzes II
TTITLE9=Rough Sound
TTITLE10=Annathema
EXTD=
EXTT0=
EXTT1=
EXTT2=
EXTT3=
EXTT4=
EXTT5=
EXTT6=
EXTT7=
EXTT8=
EXTT9=
EXTT10=
PLAYORDER=
